<svg enable-background="new 0 0 512 512" height="512" viewBox="0 0 512 512" width="512" xmlns="http://www.w3.org/2000/svg"><g fill="#D19F6D"><path d="m478.707 397.4h-107.377v47.561h-30v-120.023h-70.33v120.023h-30v-120.023h-70.33v120.023h-30v-47.561h-107.377v47.561h-33.293v30h512v-30h-33.293z"/><path d="m182.717 186.323c-13.867-13.619-23.969-31.056-28.579-50.594h-133.873l-20.265 20.265v30.329h3.293z"/><path d="m255.192 186.323h1.616c40.791-.437 73.844-33.74 73.844-74.632 0-41.163-33.489-74.652-74.652-74.652s-74.652 33.489-74.652 74.652c0 40.892 33.053 74.195 73.844 74.632zm-29.192-105.663h30v30h30v30h-30v-30h-30z"/><path d="m478.707 367.4v-151.077h-445.414v151.077h107.377v-72.462h230.66v72.462z"/><path d="m491.735 135.729h-133.873c-4.61 19.537-14.712 36.975-28.579 50.594h179.424 3.293v-30.329z"/></g></svg>