<?xml version="1.0" encoding="utf-8"?>
<!-- Generator: Adobe Illustrator 18.0.0, SVG Export Plug-In . SVG Version: 6.00 Build 0)  -->
<!DOCTYPE svg PUBLIC "-//W3C//DTD SVG 1.1//EN" "http://www.w3.org/Graphics/SVG/1.1/DTD/svg11.dtd">
<svg version="1.1" id="Layer_1" xmlns="http://www.w3.org/2000/svg" xmlns:xlink="http://www.w3.org/1999/xlink" x="0px" y="0px"
	 viewBox="0 0 100 100" enable-background="new 0 0 100 100" xml:space="preserve">
<g>
	<path fill="#D19F6D" d="M52.7,19c4.2,0.3,7.9-2.8,8.3-7.1C61.3,7.7,58.2,4,54,3.6c-4.2-0.3-7.9,2.8-8.3,7
		C45.4,14.9,48.5,18.6,52.7,19"/>
	<path fill="#D19F6D" d="M46.2,22.1c1.5-1,3.4-1.8,5.4-1.6c2.6,0.2,4.8,1.9,6.1,3.9l7.8,15.4L76.1,47c0.9,0.7,1.4,1.8,1.4,3
		c-0.2,1.9-1.8,3.3-3.8,3.2c-0.6,0-1-0.3-1.6-0.5l-11.5-7.9c-0.4-0.3-0.6-0.6-0.9-1L56.8,38l-3.5,15.3L67,69.4
		c0.3,0.5,0.5,1.1,0.6,1.7l3.7,19.5c0,0.4,0,0.7,0,1.1c-0.2,2.9-2.7,5-5.6,4.8c-2.4-0.2-4.1-2-4.7-4.1L57.5,74L46.5,61.9l-2.6,11.8
		c-0.1,0.6-0.8,1.7-1,2.2L32.2,93.8c-1.1,1.6-2.8,2.7-4.9,2.5c-2.9-0.2-5-2.7-4.8-5.6c0.1-0.8,0.4-1.6,0.7-2.2L33.2,72l8.2-36.5
		L36,39.8l-2.8,13c-0.4,1.6-1.9,3-3.7,2.9c-1.9-0.2-3.3-1.8-3.2-3.7l0.1-0.5l3.4-15.2c0.2-0.7,0.6-1.2,1.1-1.7L46.2,22.1z"/>
</g>
</svg>
