
<svg
   version="1.1"
   id="svg2571"
   xml:space="preserve"
   width="682.66534"
   height="682.66669"
   viewBox="0 0 682.66534 682.66669"
   xmlns="http://www.w3.org/2000/svg"
   xmlns:svg="http://www.w3.org/2000/svg"><defs
     id="defs2575"><clipPath
       clipPathUnits="userSpaceOnUse"
       id="clipPath2585"><path
         d="M 0,512 H 512 V 0 H 0 Z"
         id="path2583" /></clipPath></defs><g
     id="g2577"
     transform="matrix(1.3333333,0,0,-1.3333333,0,682.66667)"><g
       id="g2579"><g
         id="g2581"
         clip-path="url(#clipPath2585)"><g
           id="g2587"
           transform="translate(284.0034,406.5127)"><path
             d="m 0,0 c -26.43,15.931 -85.608,31.602 -182.542,-45.945 -3.325,-2.66 -3.852,-7.526 -1.192,-10.851 l 10.299,-12.874 c 2.904,-3.629 8.324,-3.892 11.568,-0.562 19.696,20.211 85.526,80.152 158.999,63.127 C 1.45,-8.106 3.796,-2.288 0,0 Z"
             style="fill:none;stroke:#D19F6D;stroke-width:15;stroke-linecap:round;stroke-linejoin:round;stroke-miterlimit:10;stroke-dasharray:none;stroke-opacity:1"
             id="path2589" /></g><g
           id="g2591"
           transform="translate(399.3662,116.0879)"><path
             d="m 0,0 c 27.012,14.923 70.172,58.338 51.481,181.059 -0.641,4.21 -4.591,7.098 -8.8,6.457 l -16.299,-2.482 c -4.595,-0.7 -7.532,-5.263 -6.271,-9.736 C 27.767,148.134 46.762,61.153 -4.719,6.037 -7.745,2.798 -3.879,-2.143 0,0 Z"
             style="fill:none;stroke:#D19F6D;stroke-width:15;stroke-linecap:round;stroke-linejoin:round;stroke-miterlimit:10;stroke-dasharray:none;stroke-opacity:1"
             id="path2593" /></g><g
           id="g2595"
           transform="translate(84.4262,163.3164)"><path
             d="m 0,0 c -0.582,-30.854 15.436,-89.939 131.061,-135.113 3.966,-1.55 8.442,0.426 9.992,4.392 l 6,15.357 c 1.691,4.329 -0.792,9.154 -5.297,10.299 C 114.404,-98.114 29.579,-71.073 7.587,1.068 6.295,5.309 0.083,4.432 0,0 Z"
             style="fill:none;stroke:#D19F6D;stroke-width:15;stroke-linecap:round;stroke-linejoin:round;stroke-miterlimit:10;stroke-dasharray:none;stroke-opacity:1"
             id="path2597" /></g><g
           id="g2599"
           transform="translate(72.8657,311.5635)"><path
             d="m 0,0 c -29.006,-31.84 -93.792,-116.574 -51.36,-200.03 48.343,-95.084 122.335,-89.393 148.544,-62.279 -74.59,41.158 -86.119,87.82 -85.623,114.062 0.083,4.432 6.294,5.309 7.587,1.068 14.807,-48.573 58.098,-76.699 93.153,-92.014 12.861,13.983 31.516,45.82 1.059,95.086 C 74.116,-80.627 17.35,-74.571 12.905,-4.584 12.487,1.993 4.438,4.872 0,0 Z"
             style="fill:none;stroke:#D19F6D;stroke-width:15;stroke-linecap:round;stroke-linejoin:round;stroke-miterlimit:10;stroke-dasharray:none;stroke-opacity:1"
             id="path2601" /></g><g
           id="g2603"
           transform="translate(239.8305,316.4053)"><path
             d="m 0,0 c 72.412,3.416 105.973,47.814 167.917,17.11 5.905,-2.926 12.422,2.605 10.422,8.885 C 165.268,67.034 124.278,165.509 30.788,170.489 -75.729,176.165 -107.796,109.24 -97.419,72.985 -24.481,117.004 21.694,103.657 44.173,90.107 47.969,87.819 45.623,82.001 41.305,83.002 -8.165,94.465 -54.167,71.037 -84.959,48.336 -80.489,34.069 -68.232,11.17 -35,2.908"
             style="fill:none;stroke:#D19F6D;stroke-width:15;stroke-linecap:round;stroke-linejoin:round;stroke-miterlimit:10;stroke-dasharray:none;stroke-opacity:1"
             id="path2605" /></g><g
           id="g2607"
           transform="translate(473.7549,84.6436)"><path
             d="M 0,0 C 0.645,0.938 1.289,1.879 1.917,2.846 60.09,92.254 18.165,153.487 -18.42,162.628 -16.769,77.452 -51.415,44.137 -74.389,31.444 c -3.879,-2.142 -7.745,2.798 -4.719,6.037 34.662,37.11 37.375,88.664 33.11,126.68 -18.54,4.147 -55.44,4.384 -82.876,-46.626 -35.353,-65.726 -12.215,-117.915 -70.603,-156.758 -5.487,-3.65 -3.956,-12.06 2.483,-13.467 35.94,-7.859 118.349,-19.016 173.443,26.798"
             style="fill:none;stroke:#D19F6D;stroke-width:15;stroke-linecap:round;stroke-linejoin:round;stroke-miterlimit:10;stroke-dasharray:none;stroke-opacity:1"
             id="path2609" /></g></g></g></g></svg>
