<svg xmlns="http://www.w3.org/2000/svg" viewBox="0 0 730.2 250.8" xml:space="preserve"><path fill="#15293B" d="m730.2 36.6-.8-1.2-.8-1.2-1.6-2.4s.6-.3 1.6-.6c.3-.1.6-.1.9-.2h.7v5.6zM725.3 28.4l-2.7-3c1.9-.8 3.9-1.3 6-1.4h1.6v3.7h-.8c-1.4.1-2.8.3-4.1.7M718.7 21.6c-1-.9-2-1.8-3-2.6 3.8-2.2 8.2-3.6 12.8-3.8h1.6v3.7h-.8c-3.7.1-7.4 1-10.6 2.7M712.5 16.4c-1.1-.8-2.1-1.6-3.2-2.3 5.5-3.9 12.1-6.3 19.3-6.6h1.6v3.7h-.8c-6.2.2-12 2.1-16.9 5.2M704.4 11c-1.2-.7-2.3-1.3-3.5-1.9 4.9-4.1 10.6-7.2 16.8-9h12.5v2h-.8c-9.4.1-18.1 3.4-25 8.9M695.8 6.6c-1.2-.5-2.5-1.1-3.8-1.5 1.8-1.8 3.7-3.5 5.8-5.1h6.6c-3.1 1.9-6 4.1-8.6 6.6M687.2 3.4c-1.3-.4-2.7-.8-4-1.1.7-.8 1.4-1.6 2.1-2.3h5.3c-1.2 1.1-2.3 2.3-3.4 3.4M677.6 1.2c-1.4-.2-2.8-.5-4.2-.6.1-.2.3-.4.4-.5h4.8c-.4.3-.7.7-1 1.1M584.1 36.6l-3.2-4.8s1.4-.8 3.3-.8c1 0 2 .2 3.1.8l-3.2 4.8zM589 28.4c-1.5-.5-3.2-.8-4.9-.8-1.7 0-3.3.3-4.9.8l-2.7-3c2.3-1 4.9-1.5 7.6-1.5 2.7 0 5.2.5 7.6 1.5-1 1-1.9 2-2.7 3M572.6 21.6c-1-.9-2-1.8-3-2.6 4.2-2.5 9.2-3.9 14.4-3.9 5.2 0 10.2 1.4 14.4 3.9-1 .8-2 1.7-3 2.6-3.4-1.8-7.3-2.8-11.4-2.8-4 0-7.9 1-11.4 2.8"/><path fill="#15293B" d="M601.7 16.4c-5.1-3.3-11.1-5.2-17.6-5.2-6.5 0-12.5 1.9-17.6 5.2-1-.8-2.1-1.6-3.2-2.3 5.9-4.2 13.1-6.6 20.9-6.6 7.8 0 15 2.5 20.9 6.6-1.2.7-2.3 1.5-3.4 2.3"/><path fill="#15293B" d="M609.9 11c-7.1-5.6-16.1-9-25.8-9s-18.7 3.4-25.8 9c-1.2-.7-2.3-1.3-3.5-1.9 4.9-4.1 10.6-7.2 16.8-9h24.9c6.3 1.8 12 4.9 16.8 9-1.1.5-2.3 1.2-3.4 1.9M618.5 6.6c-2.6-2.5-5.5-4.7-8.6-6.6h6.6c2 1.6 4 3.3 5.8 5.1-1.3.5-2.6 1-3.8 1.5m-68.8 0c-1.2-.5-2.5-1.1-3.8-1.5 1.8-1.8 3.7-3.5 5.8-5.1h6.6c-3.1 1.9-6 4.1-8.6 6.6M541.1 3.4c-1.3-.4-2.7-.8-4-1.1.7-.8 1.4-1.6 2.1-2.3h5.3c-1.2 1.1-2.3 2.3-3.4 3.4m86 0c-1.1-1.2-2.2-2.3-3.4-3.4h5.3c.7.8 1.4 1.5 2.1 2.3-1.4.4-2.7.7-4 1.1M531.5 1.2c-1.4-.2-2.8-.5-4.2-.6.1-.2.3-.4.4-.5h4.8c-.3.3-.6.7-1 1.1m105.1 0-.9-1.2h4.8c.1.2.3.4.4.5-1.5.2-2.9.4-4.3.7M657.7 80.1l-3.2-4.8s1.4-.8 3.3-.8c1 0 2 .2 3.1.8l-3.2 4.8zM662.5 71.9c-1.5-.5-3.2-.8-4.9-.8-1.7 0-3.3.3-4.9.8l-2.7-3c2.3-1 4.9-1.5 7.6-1.5 2.7 0 5.2.5 7.6 1.5l-2.7 3M646.2 65.1c-1-.9-2-1.8-3-2.6 4.2-2.5 9.2-3.9 14.4-3.9 5.2 0 10.2 1.4 14.4 3.9-1 .8-2 1.7-3 2.6-3.4-1.8-7.3-2.8-11.4-2.8-4.1.1-7.9 1.1-11.4 2.8"/><path fill="#15293B" d="M675.3 59.9c-5.1-3.3-11.1-5.2-17.6-5.2-6.5 0-12.5 1.9-17.6 5.2-1-.8-2.1-1.6-3.2-2.3 5.9-4.2 13.1-6.6 20.9-6.6 7.8 0 15 2.5 20.9 6.6-1.3.8-2.3 1.5-3.4 2.3"/><path fill="#15293B" d="M683.4 54.5c-7.1-5.6-16.1-9-25.8-9s-18.7 3.4-25.8 9c-1.2-.7-2.3-1.3-3.5-1.9 7.9-6.7 18.2-10.8 29.3-10.8 11.1 0 21.4 4.1 29.3 10.8-1.1.6-2.3 1.2-3.5 1.9"/><path fill="#15293B" d="M623.3 50.1c-1.2-.5-2.5-1.1-3.8-1.5 9.7-9.9 23.2-16 38.1-16s28.4 6.1 38.1 16c-1.3.5-2.5 1-3.8 1.5-9-8.5-21.1-13.8-34.4-13.8-13.1 0-25.2 5.3-34.2 13.8"/><path fill="#15293B" d="M700.7 47c-10.7-11.7-26-19.1-43-19.1s-32.3 7.4-43 19.1c-1.3-.4-2.7-.8-4-1.1 11.4-13.3 28.3-21.7 47-21.7s35.6 8.4 47 21.7c-1.4.3-2.7.7-4 1.1"/><path fill="#15293B" d="M710.2 44.7c-12.3-15.6-31.3-25.6-52.5-25.6-21.3 0-40.2 10-52.5 25.6-1.4-.2-2.8-.5-4.2-.6 12.9-17.4 33.6-28.7 56.8-28.7 23.2 0 43.8 11.3 56.8 28.7-1.6.1-3 .3-4.4.6"/><path fill="#15293B" d="M727 43.5c-.9 0-1.8-.1-2.7-.1h-1.7c-13.9-21.2-37.8-35.1-64.8-35.1s-50.9 14-64.8 35.1h-1.7c-.9 0-1.8 0-2.7.1C603 20.2 628.7 4.6 657.9 4.6c29 0 54.7 15.6 69.1 38.9M438 36.6l-3.2-4.8s1.4-.8 3.3-.8c1 0 2 .2 3.1.8l-3.2 4.8zM442.9 28.4c-1.5-.5-3.2-.8-4.9-.8-1.7 0-3.3.3-4.9.8l-2.7-3c2.3-1 4.9-1.5 7.6-1.5 2.7 0 5.2.5 7.6 1.5l-2.7 3M426.6 21.6c-1-.9-2-1.8-3-2.6 4.2-2.5 9.2-3.9 14.4-3.9 5.2 0 10.2 1.4 14.4 3.9-1 .8-2 1.7-3 2.6-3.4-1.8-7.3-2.8-11.4-2.8-4.1 0-8 1-11.4 2.8"/><path fill="#15293B" d="M455.6 16.4c-5.1-3.3-11.1-5.2-17.6-5.2-6.5 0-12.5 1.9-17.6 5.2-1.1-.8-2.1-1.6-3.2-2.3 5.9-4.2 13.1-6.6 20.9-6.6 7.8 0 15 2.5 20.9 6.6-1.2.7-2.3 1.5-3.4 2.3"/><path fill="#15293B" d="M463.8 11c-7.1-5.6-16.1-9-25.8-9s-18.7 3.4-25.8 9c-1.2-.7-2.3-1.3-3.5-1.9 4.9-4.1 10.6-7.2 16.8-9h24.9c6.3 1.8 12 4.9 16.8 9-1.1.5-2.3 1.2-3.4 1.9M472.4 6.6c-2.6-2.5-5.5-4.7-8.6-6.6h6.6c2 1.6 4 3.3 5.8 5.1-1.3.5-2.6 1-3.8 1.5m-68.8 0c-1.2-.5-2.5-1.1-3.8-1.5 1.8-1.8 3.7-3.5 5.8-5.1h6.6c-3 1.9-5.9 4.1-8.6 6.6M395 3.4c-1.3-.4-2.7-.8-4-1.1.7-.8 1.4-1.6 2.1-2.3h5.3c-1.2 1.1-2.3 2.3-3.4 3.4m86 0c-1.1-1.2-2.2-2.3-3.4-3.4h5.3c.7.8 1.4 1.5 2.1 2.3-1.3.4-2.7.7-4 1.1M385.5 1.2c-1.4-.2-2.8-.5-4.2-.6.1-.2.3-.4.4-.5h4.8c-.4.3-.7.7-1 1.1m105.1 0-.9-1.2h4.8c.1.2.3.4.4.5-1.5.2-3 .4-4.3.7M511.6 80.1l-3.2-4.8s1.4-.8 3.3-.8c1 0 2 .2 3.1.8l-3.2 4.8zM516.5 71.9c-1.5-.5-3.2-.8-4.9-.8-1.7 0-3.3.3-4.9.8l-2.7-3c2.3-1 4.9-1.5 7.6-1.5 2.7 0 5.2.5 7.6 1.5-1 1-1.9 2-2.7 3M500.1 65.1c-1-.9-2-1.8-3-2.6 4.2-2.5 9.2-3.9 14.4-3.9 5.2 0 10.2 1.4 14.4 3.9-1 .8-2 1.7-3 2.6-3.4-1.8-7.3-2.8-11.4-2.8-4 .1-7.9 1.1-11.4 2.8"/><path fill="#15293B" d="M529.2 59.9c-5.1-3.3-11.1-5.2-17.6-5.2-6.5 0-12.5 1.9-17.6 5.2-1-.8-2.1-1.6-3.2-2.3 5.9-4.2 13.1-6.6 20.9-6.6 7.8 0 15 2.5 20.9 6.6-1.2.8-2.3 1.5-3.4 2.3"/><path fill="#15293B" d="M537.4 54.5c-7.1-5.6-16.1-9-25.8-9s-18.7 3.4-25.8 9c-1.2-.7-2.3-1.3-3.5-1.9 7.9-6.7 18.2-10.8 29.3-10.8 11.1 0 21.4 4.1 29.3 10.8-1.2.6-2.4 1.2-3.5 1.9"/><path fill="#15293B" d="M477.2 50.1c-1.2-.5-2.5-1.1-3.8-1.5 9.7-9.9 23.2-16 38.1-16 14.9 0 28.4 6.1 38.1 16-1.3.5-2.5 1-3.8 1.5-9-8.5-21.1-13.8-34.4-13.8-13.1 0-25.2 5.3-34.2 13.8"/><path fill="#15293B" d="M554.6 47c-10.7-11.7-26-19.1-43-19.1s-32.3 7.4-43 19.1c-1.3-.4-2.7-.8-4-1.1 11.4-13.3 28.3-21.7 47-21.7 18.8 0 35.6 8.4 47 21.7-1.4.3-2.7.7-4 1.1"/><path fill="#15293B" d="M564.1 44.7c-12.3-15.6-31.3-25.6-52.5-25.6-21.3 0-40.2 10-52.5 25.6-1.4-.2-2.8-.5-4.2-.6 12.9-17.4 33.6-28.7 56.8-28.7 23.2 0 43.8 11.3 56.8 28.7-1.6.1-3 .3-4.4.6"/><path fill="#15293B" d="M580.9 43.5c-.9 0-1.8-.1-2.7-.1h-1.7c-13.9-21.2-37.8-35.1-64.8-35.1s-50.9 14-64.8 35.1h-1.7c-.9 0-1.8 0-2.7.1 14.4-23.3 40.1-38.9 69.3-38.9s54.7 15.6 69.1 38.9M291.9 36.6l-3.2-4.8s1.4-.8 3.3-.8c1 0 2 .2 3.1.8l-3.2 4.8zM296.8 28.4c-1.5-.5-3.2-.8-4.9-.8s-3.3.3-4.9.8l-2.7-3c2.3-1 4.9-1.5 7.6-1.5 2.7 0 5.2.5 7.6 1.5l-2.7 3M280.5 21.6c-1-.9-2-1.8-3-2.6 4.2-2.5 9.2-3.9 14.4-3.9 5.2 0 10.2 1.4 14.4 3.9-1 .8-2 1.7-3 2.6-3.4-1.8-7.3-2.8-11.4-2.8-4.1 0-8 1-11.4 2.8"/><path fill="#15293B" d="M309.6 16.4c-5.1-3.3-11.1-5.2-17.6-5.2-6.5 0-12.5 1.9-17.6 5.2-1.1-.8-2.1-1.6-3.2-2.3 5.9-4.2 13.1-6.6 20.9-6.6 7.8 0 15 2.5 20.9 6.6-1.3.7-2.4 1.5-3.4 2.3"/><path fill="#15293B" d="M317.7 11c-7.1-5.6-16.1-9-25.8-9s-18.7 3.4-25.8 9c-1.2-.7-2.3-1.3-3.5-1.9 4.9-4.1 10.6-7.2 16.8-9h24.9c6.3 1.8 12 4.9 16.8 9-1.1.5-2.2 1.2-3.4 1.9M326.3 6.6c-2.6-2.5-5.5-4.7-8.6-6.6h6.6c2 1.6 4 3.3 5.8 5.1-1.3.5-2.6 1-3.8 1.5m-68.8 0c-1.2-.5-2.5-1.1-3.8-1.5 1.8-1.8 3.7-3.5 5.8-5.1h6.6c-3 1.9-5.9 4.1-8.6 6.6M248.9 3.4c-1.3-.4-2.7-.8-4-1.1.7-.8 1.4-1.6 2.1-2.3h5.3l-3.4 3.4m86 0c-1.1-1.2-2.2-2.3-3.4-3.4h5.3c.7.8 1.4 1.5 2.1 2.3-1.3.4-2.7.7-4 1.1M239.4 1.2c-1.4-.2-2.8-.5-4.2-.6.1-.2.3-.4.4-.5h4.8c-.4.3-.7.7-1 1.1m105.1 0-.9-1.2h4.8c.1.2.3.4.4.5-1.5.2-2.9.4-4.3.7M365.5 80.1l-3.2-4.8s1.4-.8 3.3-.8c1 0 2 .2 3.1.8l-3.2 4.8zM370.4 71.9c-1.5-.5-3.2-.8-4.9-.8-1.7 0-3.3.3-4.9.8l-2.7-3c2.3-1 4.9-1.5 7.6-1.5 2.7 0 5.2.5 7.6 1.5l-2.7 3M354.1 65.1c-1-.9-2-1.8-3-2.6 4.2-2.5 9.2-3.9 14.4-3.9 5.2 0 10.2 1.4 14.4 3.9-1 .8-2 1.7-3 2.6-3.4-1.8-7.3-2.8-11.4-2.8-4.1.1-8 1.1-11.4 2.8"/><path fill="#15293B" d="M383.1 59.9c-5.1-3.3-11.1-5.2-17.6-5.2-6.5 0-12.5 1.9-17.6 5.2-1.1-.8-2.1-1.6-3.2-2.3 5.9-4.2 13.1-6.6 20.9-6.6 7.8 0 15 2.5 20.9 6.6-1.2.8-2.3 1.5-3.4 2.3"/><path fill="#15293B" d="M391.3 54.5c-7.1-5.6-16.1-9-25.8-9s-18.7 3.4-25.8 9c-1.2-.7-2.3-1.3-3.5-1.9 7.9-6.7 18.2-10.8 29.3-10.8 11.1 0 21.4 4.1 29.3 10.8-1.2.6-2.4 1.2-3.5 1.9"/><path fill="#15293B" d="M331.1 50.1c-1.2-.5-2.5-1.1-3.8-1.5 9.7-9.9 23.2-16 38.1-16 14.9 0 28.4 6.1 38.1 16-1.3.5-2.5 1-3.8 1.5-9-8.5-21.1-13.8-34.4-13.8-13.1 0-25.2 5.3-34.2 13.8"/><path fill="#15293B" d="M408.5 47c-10.7-11.7-26-19.1-43-19.1s-32.3 7.4-43 19.1c-1.3-.4-2.7-.8-4-1.1 11.4-13.3 28.3-21.7 47-21.7 18.8 0 35.6 8.4 47 21.7-1.3.3-2.7.7-4 1.1"/><path fill="#15293B" d="M418 44.7c-12.3-15.6-31.3-25.6-52.5-25.6-21.3 0-40.2 10-52.5 25.6-1.4-.2-2.8-.5-4.2-.6 12.9-17.4 33.6-28.7 56.8-28.7 23.2 0 43.8 11.3 56.8 28.7-1.5.1-3 .3-4.4.6"/><path fill="#15293B" d="M434.8 43.5c-.9 0-1.8-.1-2.7-.1h-1.7c-13.9-21.2-37.8-35.1-64.8-35.1s-50.9 14-64.8 35.1h-1.7c-.9 0-1.8 0-2.7.1 14.4-23.3 40.1-38.9 69.3-38.9 29 0 54.7 15.6 69.1 38.9M145.8 36.6l-3.2-4.8s1.4-.8 3.3-.8c1 0 2 .2 3.1.8l-3.2 4.8zM150.7 28.4c-1.5-.5-3.2-.8-4.9-.8-1.7 0-3.3.3-4.9.8l-2.7-3c2.3-1 4.9-1.5 7.6-1.5 2.7 0 5.2.5 7.6 1.5l-2.7 3M134.4 21.6c-1-.9-2-1.8-3-2.6 4.2-2.5 9.2-3.9 14.4-3.9 5.2 0 10.2 1.4 14.4 3.9-1 .8-2 1.7-3 2.6-3.4-1.8-7.3-2.8-11.4-2.8s-8 1-11.4 2.8"/><path fill="#15293B" d="M163.5 16.4c-5.1-3.3-11.1-5.2-17.6-5.2-6.5 0-12.5 1.9-17.6 5.2-1-.8-2.1-1.6-3.2-2.3 5.9-4.2 13.1-6.6 20.9-6.6 7.8 0 15 2.5 20.9 6.6-1.3.7-2.4 1.5-3.4 2.3"/><path fill="#15293B" d="M171.6 11c-7.1-5.6-16.1-9-25.8-9s-18.7 3.4-25.8 9c-1.2-.7-2.3-1.3-3.5-1.9 4.9-4.1 10.6-7.2 16.8-9h24.9c6.3 1.8 12 4.9 16.8 9-1 .5-2.2 1.2-3.4 1.9M180.2 6.6c-2.6-2.5-5.5-4.7-8.6-6.6h6.6c2 1.6 4 3.3 5.8 5.1-1.3.5-2.5 1-3.8 1.5m-68.7 0c-1.2-.5-2.5-1.1-3.8-1.5 1.8-1.8 3.7-3.5 5.8-5.1h6.6c-3.1 1.9-6 4.1-8.6 6.6M102.9 3.4c-1.3-.4-2.7-.8-4-1.1.7-.8 1.4-1.6 2.1-2.3h5.3c-1.2 1.1-2.4 2.3-3.4 3.4m85.9 0c-1.1-1.2-2.2-2.3-3.4-3.4h5.3c.7.8 1.4 1.5 2.1 2.3-1.3.4-2.6.7-4 1.1M93.3 1.2C91.9 1 90.5.7 89.1.6c.1-.2.3-.4.4-.5h4.8c-.4.3-.7.7-1 1.1m105.1 0-.9-1.2h4.8c.1.2.3.4.4.5-1.5.2-2.9.4-4.3.7M219.4 80.1l-3.2-4.8s1.4-.8 3.3-.8c1 0 2 .2 3.1.8l-3.2 4.8zM224.3 71.9c-1.5-.5-3.2-.8-4.9-.8-1.7 0-3.3.3-4.9.8l-2.7-3c2.3-1 4.9-1.5 7.6-1.5 2.7 0 5.2.5 7.6 1.5l-2.7 3M208 65.1c-1-.9-2-1.8-3-2.6 4.2-2.5 9.2-3.9 14.4-3.9 5.2 0 10.2 1.4 14.4 3.9-1 .8-2 1.7-3 2.6-3.4-1.8-7.3-2.8-11.4-2.8-4.1.1-8 1.1-11.4 2.8"/><path fill="#15293B" d="M237.1 59.9c-5.1-3.3-11.1-5.2-17.6-5.2-6.5 0-12.5 1.9-17.6 5.2-1.1-.8-2.1-1.6-3.2-2.3 5.9-4.2 13.1-6.6 20.9-6.6 7.8 0 15 2.5 20.9 6.6-1.3.8-2.4 1.5-3.4 2.3"/><path fill="#15293B" d="M245.2 54.5c-7.1-5.6-16.1-9-25.8-9s-18.7 3.4-25.8 9c-1.2-.7-2.3-1.3-3.5-1.9 7.9-6.7 18.2-10.8 29.3-10.8 11.1 0 21.4 4.1 29.3 10.8-1.2.6-2.3 1.2-3.5 1.9"/><path fill="#15293B" d="M185 50.1c-1.2-.5-2.5-1.1-3.8-1.5 9.7-9.9 23.2-16 38.1-16 14.9 0 28.4 6.1 38.1 16-1.3.5-2.5 1-3.8 1.5-9-8.5-21.1-13.8-34.4-13.8-13.1 0-25.2 5.3-34.2 13.8"/><path fill="#15293B" d="M262.4 47c-10.7-11.7-26-19.1-43-19.1s-32.3 7.4-43 19.1c-1.3-.4-2.7-.8-4-1.1 11.4-13.3 28.3-21.7 47-21.7s35.6 8.4 47 21.7c-1.3.3-2.7.7-4 1.1"/><path fill="#15293B" d="M272 44.7c-12.3-15.6-31.3-25.6-52.5-25.6-21.3 0-40.2 10-52.5 25.6-1.4-.2-2.8-.5-4.2-.6 12.9-17.4 33.6-28.7 56.8-28.7 23.2 0 43.8 11.3 56.8 28.7-1.6.1-3 .3-4.4.6"/><path fill="#15293B" d="M288.7 43.5c-.9 0-1.8-.1-2.7-.1h-1.7c-13.9-21.2-37.8-35.1-64.8-35.1s-50.9 14-64.8 35.1H153c-.9 0-1.8 0-2.7.1 14.4-23.3 40.1-38.9 69.3-38.9 29 0 54.7 15.6 69.1 38.9M-.2 36.6v-5.5h.1c1 0 2 .2 3.1.8l-3.2 4.7zM4.6 28.4c-1.5-.5-3.2-.8-4.9-.8v-3.8c2.7 0 5.2.5 7.6 1.5-.9 1.1-1.8 2.1-2.7 3.1M11.2 21.6c-3.4-1.8-7.3-2.8-11.4-2.8V15C5 15 10 16.4 14.2 18.9l-3 2.7M17.4 16.4c-5.1-3.3-11.1-5.2-17.6-5.2V7.5c7.8 0 15 2.5 20.9 6.6-1.2.7-2.2 1.5-3.3 2.3M25.5 11C18.4 5.4 9.5 2-.2 2V0h12.5c6.3 1.8 12 4.9 16.8 9-1.2.6-2.4 1.3-3.6 2M34.1 6.6c-2.6-2.5-5.5-4.7-8.6-6.6h6.6c2 1.6 4 3.3 5.8 5.1-1.3.5-2.5 1-3.8 1.5M42.8 3.4c-1.1-1.2-2.2-2.3-3.4-3.4h5.3c.7.8 1.4 1.5 2.1 2.3-1.4.4-2.7.7-4 1.1M52.3 1.2 51.4 0h4.8c.1.2.3.4.4.5-1.5.2-2.9.4-4.3.7M73.3 80.1l-3.2-4.8s1.4-.8 3.3-.8c1 0 2 .2 3.1.8l-3.2 4.8zM78.2 71.9c-1.5-.5-3.2-.8-4.9-.8-1.7 0-3.3.3-4.9.8l-2.7-3c2.3-1 4.9-1.5 7.6-1.5 2.7 0 5.2.5 7.6 1.5l-2.7 3M61.9 65.1c-1-.9-2-1.8-3-2.6 4.2-2.5 9.2-3.9 14.4-3.9 5.2 0 10.2 1.4 14.4 3.9-1 .8-2 1.7-3 2.6-3.4-1.8-7.3-2.8-11.4-2.8-4.1.1-8 1.1-11.4 2.8"/><path fill="#15293B" d="M91 59.9c-5.1-3.3-11.1-5.2-17.6-5.2-6.5 0-12.5 1.9-17.6 5.2-1.1-.8-2.1-1.6-3.2-2.3 5.9-4.2 13.1-6.6 20.9-6.6 7.8 0 15 2.5 20.9 6.6-1.3.8-2.4 1.5-3.4 2.3"/><path fill="#15293B" d="M99.1 54.5c-7.1-5.6-16.1-9-25.8-9s-18.7 3.4-25.8 9c-1.2-.7-2.3-1.3-3.5-1.9 7.9-6.7 18.2-10.8 29.3-10.8 11.1 0 21.4 4.1 29.3 10.8-1.2.6-2.3 1.2-3.5 1.9"/><path fill="#15293B" d="M39 50.1c-1.2-.5-2.5-1.1-3.8-1.5 9.7-9.9 23.2-16 38.1-16s28.4 6.1 38.1 16c-1.3.5-2.5 1-3.8 1.5-9-8.5-21.1-13.8-34.4-13.8-13.2 0-25.3 5.3-34.2 13.8"/><path fill="#15293B" d="M116.3 47c-10.7-11.7-26-19.1-43-19.1S41 35.3 30.3 47c-1.3-.4-2.7-.8-4-1.1 11.4-13.3 28.3-21.7 47-21.7s35.6 8.4 47 21.7c-1.3.3-2.6.7-4 1.1"/><path fill="#15293B" d="M125.9 44.7c-12.3-15.6-31.3-25.6-52.5-25.6-21.3 0-40.2 10-52.5 25.6-1.4-.2-2.8-.5-4.2-.6 12.9-17.4 33.6-28.7 56.8-28.7 23.2 0 43.8 11.3 56.8 28.7-1.6.1-3 .3-4.4.6"/><path fill="#15293B" d="M142.6 43.5c-.9 0-1.8-.1-2.7-.1h-1.7c-14-21.1-37.8-35-64.9-35s-50.9 14-64.8 35.1H6.8c-.9 0-1.8 0-2.7.1 14.3-23.4 40-39 69.2-39 29.3 0 54.9 15.6 69.3 38.9M730.2 122.4l-.8-1.2-.8-1.2-1.6-2.4s.6-.3 1.6-.6c.3-.1.6-.1.9-.2h.7v5.6zM725.3 114.2l-2.7-3c1.9-.8 3.9-1.3 6-1.4h1.6V113.6h-.8c-1.4 0-2.8.2-4.1.6M718.7 107.4c-1-.9-2-1.8-3-2.6 3.8-2.2 8.2-3.6 12.8-3.8h1.6v3.7h-.8c-3.7.1-7.4 1.1-10.6 2.7M712.5 102.2c-1.1-.8-2.1-1.6-3.2-2.3 5.5-3.9 12.1-6.3 19.3-6.6h1.6V97h-.8c-6.2.2-12 2.1-16.9 5.2M704.4 96.8c-1.2-.7-2.3-1.3-3.5-1.9 7.5-6.4 17.2-10.4 27.7-10.8h1.6v3.7h-.8c-9.4.2-18.1 3.5-25 9M695.8 92.4c-1.2-.5-2.5-1.1-3.8-1.5 9.4-9.5 22.3-15.6 36.5-16h1.6v3.7h-.8c-12.9.2-24.7 5.5-33.5 13.8"/><path fill="#15293B" d="M687.2 89.3c-1.3-.4-2.7-.8-4-1.1 11.1-12.9 27.3-21.2 45.4-21.7h1.6v3.7h-.8c-16.7.2-31.7 7.5-42.2 19.1"/><path fill="#15293B" d="M677.6 87c-1.4-.2-2.8-.5-4.2-.6 12.6-17 32.6-28.2 55.2-28.7h1.6v3.7h-.8c-21 .2-39.6 10.2-51.8 25.6"/><path fill="#15293B" d="M660.9 85.8C675 62.9 700 47.5 728.6 46.9h1.6v3.7h-.8c-26.7.3-50.2 14.2-64 35.1h-1.7c-1 .1-1.9.1-2.8.1M584.1 122.4l-3.2-4.8s1.4-.8 3.3-.8c1 0 2 .2 3.1.8l-3.2 4.8zM589 114.2c-1.5-.5-3.2-.8-4.9-.8-1.7 0-3.3.3-4.9.8l-2.7-3c2.3-1 4.9-1.5 7.6-1.5 2.7 0 5.2.5 7.6 1.5-1 1-1.9 2-2.7 3M572.6 107.4c-1-.9-2-1.8-3-2.6 4.2-2.5 9.2-3.9 14.4-3.9 5.2 0 10.2 1.4 14.4 3.9-1 .8-2 1.7-3 2.6-3.4-1.8-7.3-2.8-11.4-2.8-4 0-7.9 1-11.4 2.8"/><path fill="#15293B" d="M601.7 102.2c-5.1-3.3-11.1-5.2-17.6-5.2-6.5 0-12.5 1.9-17.6 5.2-1-.8-2.1-1.6-3.2-2.3 5.9-4.2 13.1-6.6 20.9-6.6 7.8 0 15 2.5 20.9 6.6-1.2.7-2.3 1.5-3.4 2.3"/><path fill="#15293B" d="M609.9 96.8c-7.1-5.6-16.1-9-25.8-9s-18.7 3.4-25.8 9c-1.2-.7-2.3-1.3-3.5-1.9 7.9-6.7 18.2-10.8 29.3-10.8 11.1 0 21.4 4.1 29.3 10.8-1.2.6-2.4 1.2-3.5 1.9"/><path fill="#15293B" d="M549.7 92.4c-1.2-.5-2.5-1.1-3.8-1.5 9.7-9.9 23.2-16 38.1-16 14.9 0 28.4 6.1 38.1 16-1.3.5-2.5 1-3.8 1.5-9-8.5-21.1-13.8-34.4-13.8-13.1 0-25.2 5.3-34.2 13.8"/><path fill="#15293B" d="M627.1 89.3c-10.7-11.7-26-19.1-43-19.1s-32.3 7.4-43 19.1c-1.3-.4-2.7-.8-4-1.1 11.4-13.3 28.3-21.7 47-21.7 18.8 0 35.6 8.4 47 21.7-1.4.3-2.7.7-4 1.1"/><path fill="#15293B" d="M636.6 87c-12.3-15.6-31.3-25.6-52.5-25.6-21.3 0-40.2 10-52.5 25.6-1.4-.2-2.8-.5-4.2-.6C540.3 69 561 57.7 584.2 57.7c23.2 0 43.8 11.3 56.8 28.7-1.6.1-3 .3-4.4.6"/><path fill="#15293B" d="M653.4 85.8c-.9 0-1.8-.1-2.7-.1H649c-13.9-21.2-37.8-35.1-64.8-35.1s-50.9 14-64.8 35.1h-1.7c-.9 0-1.8 0-2.7.1 14.4-23.3 40.1-38.9 69.3-38.9s54.7 15.6 69.1 38.9M657.7 165.9l-3.2-4.8s1.4-.8 3.3-.8c1 0 2 .2 3.1.8l-3.2 4.8zM662.5 157.8c-1.5-.5-3.2-.8-4.9-.8-1.7 0-3.3.3-4.9.8l-2.7-3c2.3-1 4.9-1.5 7.6-1.5 2.7 0 5.2.5 7.6 1.5-.9.9-1.8 1.9-2.7 3M646.2 150.9c-1-.9-2-1.8-3-2.6 4.2-2.5 9.2-3.9 14.4-3.9 5.2 0 10.2 1.4 14.4 3.9-1 .8-2 1.7-3 2.6-3.4-1.8-7.3-2.8-11.4-2.8-4.1.1-7.9 1.1-11.4 2.8"/><path fill="#15293B" d="M675.3 145.7c-5.1-3.3-11.1-5.2-17.6-5.2-6.5 0-12.5 1.9-17.6 5.2-1-.8-2.1-1.6-3.2-2.3 5.9-4.2 13.1-6.6 20.9-6.6 7.8 0 15 2.5 20.9 6.6-1.3.8-2.3 1.5-3.4 2.3"/><path fill="#15293B" d="M683.4 140.3c-7.1-5.6-16.1-9-25.8-9s-18.7 3.4-25.8 9c-1.2-.7-2.3-1.3-3.5-1.9 7.9-6.7 18.2-10.8 29.3-10.8 11.1 0 21.4 4.1 29.3 10.8-1.1.6-2.3 1.2-3.5 1.9"/><path fill="#15293B" d="M623.3 136c-1.2-.5-2.5-1.1-3.8-1.5 9.7-9.9 23.2-16 38.1-16s28.4 6.1 38.1 16c-1.3.5-2.5 1-3.8 1.5-9-8.5-21.1-13.8-34.4-13.8-13.1-.1-25.2 5.2-34.2 13.8"/><path fill="#15293B" d="M700.7 132.8c-10.7-11.7-26-19.1-43-19.1s-32.3 7.4-43 19.1c-1.3-.4-2.7-.8-4-1.1 11.4-13.3 28.3-21.7 47-21.7s35.6 8.4 47 21.7c-1.4.3-2.7.7-4 1.1"/><path fill="#15293B" d="M710.2 130.5c-12.3-15.6-31.3-25.6-52.5-25.6-21.3 0-40.2 10-52.5 25.6-1.4-.2-2.8-.5-4.2-.6 12.9-17.4 33.6-28.7 56.8-28.7 23.2 0 43.8 11.3 56.8 28.7-1.6.1-3 .4-4.4.6"/><path fill="#15293B" d="M727 129.3c-.9 0-1.8-.1-2.7-.1h-1.7c-13.9-21.2-37.8-35.1-64.8-35.1s-50.9 14-64.8 35.1h-1.7c-.9 0-1.8 0-2.7.1 14.4-23.3 40.1-38.9 69.3-38.9 29 0 54.7 15.6 69.1 38.9M438 122.4l-3.2-4.8s1.4-.8 3.3-.8c1 0 2 .2 3.1.8l-3.2 4.8zM442.9 114.2c-1.5-.5-3.2-.8-4.9-.8-1.7 0-3.3.3-4.9.8l-2.7-3c2.3-1 4.9-1.5 7.6-1.5 2.7 0 5.2.5 7.6 1.5l-2.7 3M426.6 107.4c-1-.9-2-1.8-3-2.6 4.2-2.5 9.2-3.9 14.4-3.9 5.2 0 10.2 1.4 14.4 3.9-1 .8-2 1.7-3 2.6-3.4-1.8-7.3-2.8-11.4-2.8-4.1 0-8 1-11.4 2.8"/><path fill="#15293B" d="M455.6 102.2c-5.1-3.3-11.1-5.2-17.6-5.2-6.5 0-12.5 1.9-17.6 5.2-1.1-.8-2.1-1.6-3.2-2.3 5.9-4.2 13.1-6.6 20.9-6.6 7.8 0 15 2.5 20.9 6.6-1.2.7-2.3 1.5-3.4 2.3"/><path fill="#15293B" d="M463.8 96.8c-7.1-5.6-16.1-9-25.8-9s-18.7 3.4-25.8 9c-1.2-.7-2.3-1.3-3.5-1.9 7.9-6.7 18.2-10.8 29.3-10.8 11.1 0 21.4 4.1 29.3 10.8-1.2.6-2.4 1.2-3.5 1.9"/><path fill="#15293B" d="M403.6 92.4c-1.2-.5-2.5-1.1-3.8-1.5 9.7-9.9 23.2-16 38.1-16 14.9 0 28.4 6.1 38.1 16-1.3.5-2.5 1-3.8 1.5-9-8.5-21.1-13.8-34.4-13.8-13.1 0-25.2 5.3-34.2 13.8"/><path fill="#15293B" d="M481 89.3c-10.7-11.7-26-19.1-43-19.1s-32.3 7.4-43 19.1c-1.3-.4-2.7-.8-4-1.1 11.4-13.3 28.3-21.7 47-21.7 18.8 0 35.6 8.4 47 21.7-1.3.3-2.7.7-4 1.1"/><path fill="#15293B" d="M490.6 87c-12.3-15.6-31.3-25.6-52.5-25.6-21.3 0-40.2 10-52.5 25.6-1.4-.2-2.8-.5-4.2-.6C394.3 69 415 57.7 438.2 57.7c23.2 0 43.8 11.3 56.8 28.7-1.6.1-3.1.3-4.4.6"/><path fill="#15293B" d="M507.3 85.8c-.9 0-1.8-.1-2.7-.1h-1.7c-14-21.1-37.9-35-64.9-35s-50.9 14-64.8 35.1h-1.7c-.9 0-1.8 0-2.7.1C383.2 62.6 408.9 47 438.1 47s54.8 15.5 69.2 38.8M511.6 165.9l-3.2-4.8s1.4-.8 3.3-.8c1 0 2 .2 3.1.8l-3.2 4.8zM516.5 157.8c-1.5-.5-3.2-.8-4.9-.8-1.7 0-3.3.3-4.9.8l-2.7-3c2.3-1 4.9-1.5 7.6-1.5 2.7 0 5.2.5 7.6 1.5-1 .9-1.9 1.9-2.7 3M500.1 150.9c-1-.9-2-1.8-3-2.6 4.2-2.5 9.2-3.9 14.4-3.9 5.2 0 10.2 1.4 14.4 3.9-1 .8-2 1.7-3 2.6-3.4-1.8-7.3-2.8-11.4-2.8-4 .1-7.9 1.1-11.4 2.8"/><path fill="#15293B" d="M529.2 145.7c-5.1-3.3-11.1-5.2-17.6-5.2-6.5 0-12.5 1.9-17.6 5.2-1-.8-2.1-1.6-3.2-2.3 5.9-4.2 13.1-6.6 20.9-6.6 7.8 0 15 2.5 20.9 6.6-1.2.8-2.3 1.5-3.4 2.3"/><path fill="#15293B" d="M537.4 140.3c-7.1-5.6-16.1-9-25.8-9s-18.7 3.4-25.8 9c-1.2-.7-2.3-1.3-3.5-1.9 7.9-6.7 18.2-10.8 29.3-10.8 11.1 0 21.4 4.1 29.3 10.8-1.2.6-2.4 1.2-3.5 1.9"/><path fill="#15293B" d="M477.2 136c-1.2-.5-2.5-1.1-3.8-1.5 9.7-9.9 23.2-16 38.1-16 14.9 0 28.4 6.1 38.1 16-1.3.5-2.5 1-3.8 1.5-9-8.5-21.1-13.8-34.4-13.8-13.1-.1-25.2 5.2-34.2 13.8"/><path fill="#15293B" d="M554.6 132.8c-10.7-11.7-26-19.1-43-19.1s-32.3 7.4-43 19.1c-1.3-.4-2.7-.8-4-1.1 11.4-13.3 28.3-21.7 47-21.7 18.8 0 35.6 8.4 47 21.7-1.4.3-2.7.7-4 1.1"/><path fill="#15293B" d="M564.1 130.5c-12.3-15.6-31.3-25.6-52.5-25.6-21.3 0-40.2 10-52.5 25.6-1.4-.2-2.8-.5-4.2-.6 12.9-17.4 33.6-28.7 56.8-28.7 23.2 0 43.8 11.3 56.8 28.7-1.6.1-3 .4-4.4.6"/><path fill="#15293B" d="M580.9 129.3c-.9 0-1.8-.1-2.7-.1h-1.7c-13.9-21.2-37.8-35.1-64.8-35.1s-50.9 14-64.8 35.1h-1.7c-.9 0-1.8 0-2.7.1 14.4-23.3 40.1-38.9 69.3-38.9s54.7 15.6 69.1 38.9M291.9 122.4l-3.2-4.8s1.4-.8 3.3-.8c1 0 2 .2 3.1.8l-3.2 4.8zM296.8 114.2c-1.5-.5-3.2-.8-4.9-.8s-3.3.3-4.9.8l-2.7-3c2.3-1 4.9-1.5 7.6-1.5 2.7 0 5.2.5 7.6 1.5l-2.7 3M280.5 107.4c-1-.9-2-1.8-3-2.6 4.2-2.5 9.2-3.9 14.4-3.9 5.2 0 10.2 1.4 14.4 3.9-1 .8-2 1.7-3 2.6-3.4-1.8-7.3-2.8-11.4-2.8-4.1 0-8 1-11.4 2.8"/><path fill="#15293B" d="M309.6 102.2c-5.1-3.3-11.1-5.2-17.6-5.2-6.5 0-12.5 1.9-17.6 5.2-1.1-.8-2.1-1.6-3.2-2.3 5.9-4.2 13.1-6.6 20.9-6.6 7.8 0 15 2.5 20.9 6.6-1.3.7-2.4 1.5-3.4 2.3"/><path fill="#15293B" d="M317.7 96.8c-7.1-5.6-16.1-9-25.8-9s-18.7 3.4-25.8 9c-1.2-.7-2.3-1.3-3.5-1.9 7.9-6.7 18.2-10.8 29.3-10.8 11.1 0 21.4 4.1 29.3 10.8-1.2.6-2.3 1.2-3.5 1.9"/><path fill="#15293B" d="M257.5 92.4c-1.2-.5-2.5-1.1-3.8-1.5 9.7-9.9 23.2-16 38.1-16 14.9 0 28.4 6.1 38.1 16-1.3.5-2.5 1-3.8 1.5-9-8.5-21.1-13.8-34.4-13.8-13.1 0-25.2 5.3-34.2 13.8"/><path fill="#15293B" d="M334.9 89.3c-10.7-11.7-26-19.1-43-19.1s-32.3 7.4-43 19.1c-1.3-.4-2.7-.8-4-1.1 11.4-13.3 28.3-21.7 47-21.7 18.8 0 35.6 8.4 47 21.7-1.3.3-2.7.7-4 1.1"/><path fill="#15293B" d="M344.5 87c-12.3-15.6-31.3-25.6-52.5-25.6-21.3 0-40.2 10-52.5 25.6-1.4-.2-2.8-.5-4.2-.6 12.9-17.4 33.6-28.7 56.8-28.7 23.2 0 43.8 11.3 56.8 28.7-1.6.1-3 .3-4.4.6"/><path fill="#15293B" d="M361.2 85.8c-.9 0-1.8-.1-2.7-.1h-1.7C342.9 64.5 319 50.6 292 50.6s-50.9 14-64.8 35.1h-1.7c-.9 0-1.8 0-2.7.1 14.4-23.3 40.1-38.9 69.3-38.9 29 0 54.7 15.6 69.1 38.9M365.5 165.9l-3.2-4.8s1.4-.8 3.3-.8c1 0 2 .2 3.1.8l-3.2 4.8zM370.4 157.8c-1.5-.5-3.2-.8-4.9-.8-1.7 0-3.3.3-4.9.8l-2.7-3c2.3-1 4.9-1.5 7.6-1.5 2.7 0 5.2.5 7.6 1.5-.9.9-1.8 1.9-2.7 3M354.1 150.9c-1-.9-2-1.8-3-2.6 4.2-2.5 9.2-3.9 14.4-3.9 5.2 0 10.2 1.4 14.4 3.9-1 .8-2 1.7-3 2.6-3.4-1.8-7.3-2.8-11.4-2.8-4.1.1-8 1.1-11.4 2.8"/><path fill="#15293B" d="M383.1 145.7c-5.1-3.3-11.1-5.2-17.6-5.2-6.5 0-12.5 1.9-17.6 5.2-1.1-.8-2.1-1.6-3.2-2.3 5.9-4.2 13.1-6.6 20.9-6.6 7.8 0 15 2.5 20.9 6.6-1.2.8-2.3 1.5-3.4 2.3"/><path fill="#15293B" d="M391.3 140.3c-7.1-5.6-16.1-9-25.8-9s-18.7 3.4-25.8 9c-1.2-.7-2.3-1.3-3.5-1.9 7.9-6.7 18.2-10.8 29.3-10.8 11.1 0 21.4 4.1 29.3 10.8-1.2.6-2.4 1.2-3.5 1.9"/><path fill="#15293B" d="M331.1 136c-1.2-.5-2.5-1.1-3.8-1.5 9.7-9.9 23.2-16 38.1-16 14.9 0 28.4 6.1 38.1 16-1.3.5-2.5 1-3.8 1.5-9-8.5-21.1-13.8-34.4-13.8-13.1-.1-25.2 5.2-34.2 13.8"/><path fill="#15293B" d="M408.5 132.8c-10.7-11.7-26-19.1-43-19.1s-32.3 7.4-43 19.1c-1.3-.4-2.7-.8-4-1.1 11.4-13.3 28.3-21.7 47-21.7 18.8 0 35.6 8.4 47 21.7-1.3.3-2.7.7-4 1.1"/><path fill="#15293B" d="M418 130.5c-12.3-15.6-31.3-25.6-52.5-25.6-21.3 0-40.2 10-52.5 25.6-1.4-.2-2.8-.5-4.2-.6 12.9-17.4 33.6-28.7 56.8-28.7 23.2 0 43.8 11.3 56.8 28.7-1.5.1-3 .4-4.4.6"/><path fill="#15293B" d="M434.8 129.3c-.9 0-1.8-.1-2.7-.1h-1.7c-13.9-21.2-37.8-35.1-64.8-35.1s-50.9 14-64.8 35.1h-1.7c-.9 0-1.8 0-2.7.1 14.4-23.3 40.1-38.9 69.3-38.9 29 0 54.7 15.6 69.1 38.9M145.8 122.4l-3.2-4.8s1.4-.8 3.3-.8c1 0 2 .2 3.1.8l-3.2 4.8zM150.7 114.2c-1.5-.5-3.2-.8-4.9-.8-1.7 0-3.3.3-4.9.8l-2.7-3c2.3-1 4.9-1.5 7.6-1.5 2.7 0 5.2.5 7.6 1.5l-2.7 3M134.4 107.4c-1-.9-2-1.8-3-2.6 4.2-2.5 9.2-3.9 14.4-3.9 5.2 0 10.2 1.4 14.4 3.9-1 .8-2 1.7-3 2.6-3.4-1.8-7.3-2.8-11.4-2.8s-8 1-11.4 2.8"/><path fill="#15293B" d="M163.5 102.2c-5.1-3.3-11.1-5.2-17.6-5.2-6.5 0-12.5 1.9-17.6 5.2-1-.8-2.1-1.6-3.2-2.3 5.9-4.2 13.1-6.6 20.9-6.6 7.8 0 15 2.5 20.9 6.6-1.3.7-2.4 1.5-3.4 2.3"/><path fill="#15293B" d="M171.6 96.8c-7.1-5.6-16.1-9-25.8-9s-18.7 3.4-25.8 9c-1.2-.7-2.3-1.3-3.5-1.9 7.9-6.7 18.2-10.8 29.3-10.8 11.1 0 21.4 4.1 29.3 10.8-1.1.6-2.3 1.2-3.5 1.9"/><path fill="#15293B" d="M111.5 92.4c-1.2-.5-2.5-1.1-3.8-1.5 9.7-9.9 23.2-16 38.1-16 14.9 0 28.4 6.1 38.1 16-1.3.5-2.5 1-3.8 1.5-9-8.5-21.1-13.8-34.4-13.8-13.2 0-25.3 5.3-34.2 13.8"/><path fill="#15293B" d="M188.8 89.3c-10.7-11.7-26-19.1-43-19.1s-32.3 7.4-43 19.1c-1.3-.4-2.7-.8-4-1.1 11.4-13.3 28.3-21.7 47-21.7 18.8 0 35.6 8.4 47 21.7-1.3.3-2.6.7-4 1.1"/><path fill="#15293B" d="M198.4 87c-12.3-15.6-31.3-25.6-52.5-25.6-21.3 0-40.2 10-52.5 25.6-1.4-.2-2.8-.5-4.2-.6C102.1 69 122.8 57.7 146 57.7c23.2 0 43.8 11.3 56.8 28.7-1.6.1-3 .3-4.4.6"/><path fill="#15293B" d="M215.1 85.8c-.9 0-1.8-.1-2.7-.1h-1.7c-13.9-21.2-37.8-35.1-64.8-35.1S95 64.6 81 85.8h-1.7c-.9 0-1.8 0-2.7.1C91 62.6 116.7 47 145.9 47s54.8 15.5 69.2 38.8M219.4 165.9l-3.2-4.8s1.4-.8 3.3-.8c1 0 2 .2 3.1.8l-3.2 4.8zM224.3 157.8c-1.5-.5-3.2-.8-4.9-.8-1.7 0-3.3.3-4.9.8l-2.7-3c2.3-1 4.9-1.5 7.6-1.5 2.7 0 5.2.5 7.6 1.5-.9.9-1.8 1.9-2.7 3M208 150.9c-1-.9-2-1.8-3-2.6 4.2-2.5 9.2-3.9 14.4-3.9 5.2 0 10.2 1.4 14.4 3.9-1 .8-2 1.7-3 2.6-3.4-1.8-7.3-2.8-11.4-2.8-4.1.1-8 1.1-11.4 2.8"/><path fill="#15293B" d="M237.1 145.7c-5.1-3.3-11.1-5.2-17.6-5.2-6.5 0-12.5 1.9-17.6 5.2-1.1-.8-2.1-1.6-3.2-2.3 5.9-4.2 13.1-6.6 20.9-6.6 7.8 0 15 2.5 20.9 6.6-1.3.8-2.4 1.5-3.4 2.3"/><path fill="#15293B" d="M245.2 140.3c-7.1-5.6-16.1-9-25.8-9s-18.7 3.4-25.8 9c-1.2-.7-2.3-1.3-3.5-1.9 7.9-6.7 18.2-10.8 29.3-10.8 11.1 0 21.4 4.1 29.3 10.8-1.2.6-2.3 1.2-3.5 1.9"/><path fill="#15293B" d="M185 136c-1.2-.5-2.5-1.1-3.8-1.5 9.7-9.9 23.2-16 38.1-16 14.9 0 28.4 6.1 38.1 16-1.3.5-2.5 1-3.8 1.5-9-8.5-21.1-13.8-34.4-13.8-13.1-.1-25.2 5.2-34.2 13.8"/><path fill="#15293B" d="M262.4 132.8c-10.7-11.7-26-19.1-43-19.1s-32.3 7.4-43 19.1c-1.3-.4-2.7-.8-4-1.1 11.4-13.3 28.3-21.7 47-21.7s35.6 8.4 47 21.7c-1.3.3-2.7.7-4 1.1"/><path fill="#15293B" d="M272 130.5c-12.3-15.6-31.3-25.6-52.5-25.6-21.3 0-40.2 10-52.5 25.6-1.4-.2-2.8-.5-4.2-.6 12.9-17.4 33.6-28.7 56.8-28.7 23.2 0 43.8 11.3 56.8 28.7-1.6.1-3 .4-4.4.6"/><path fill="#15293B" d="M288.7 129.3c-.9 0-1.8-.1-2.7-.1h-1.7c-13.9-21.2-37.8-35.1-64.8-35.1s-50.9 14-64.8 35.1H153c-.9 0-1.8 0-2.7.1 14.4-23.3 40.1-38.9 69.3-38.9 29 0 54.7 15.6 69.1 38.9M-.2 122.4v-5.5h.1c1 0 2 .2 3.1.8l-3.2 4.7zM4.6 114.2c-1.5-.5-3.2-.8-4.9-.8v-3.8c2.7 0 5.2.5 7.6 1.5-.9 1.1-1.8 2.1-2.7 3.1M11.2 107.4c-3.4-1.8-7.3-2.8-11.4-2.8v-3.8c5.2 0 10.2 1.4 14.4 3.9l-3 2.7M17.4 102.2C12.3 98.9 6.3 97-.2 97v-3.8c7.8 0 15 2.5 20.9 6.6-1.2.8-2.2 1.6-3.3 2.4M25.5 96.8c-7.1-5.6-16.1-9-25.8-9V84c11.1 0 21.4 4.1 29.3 10.8-1.1.7-2.3 1.3-3.5 2M34.1 92.4C25.1 83.9 13 78.6-.3 78.6v-3.8c14.9 0 28.4 6.1 38.1 16-1.2.6-2.4 1.1-3.7 1.6"/><path fill="#15293B" d="M42.8 89.3c-10.7-11.7-26-19.1-43-19.1v-3.8c18.8 0 35.6 8.4 47 21.7-1.4.4-2.7.8-4 1.2"/><path fill="#15293B" d="M52.3 87C40 71.4 21 61.4-.2 61.4v-3.8c23.2 0 43.8 11.3 56.8 28.7-1.5.2-2.9.4-4.3.7"/><path fill="#15293B" d="M69.1 85.8c-.9 0-1.8-.1-2.7-.1h-1.7c-14-21.1-37.9-35-64.9-35v-3.8c29.2 0 54.9 15.6 69.3 38.9M73.3 165.9l-3.2-4.8s1.4-.8 3.3-.8c1 0 2 .2 3.1.8l-3.2 4.8zM78.2 157.8c-1.5-.5-3.2-.8-4.9-.8-1.7 0-3.3.3-4.9.8l-2.7-3c2.3-1 4.9-1.5 7.6-1.5 2.7 0 5.2.5 7.6 1.5-.9.9-1.8 1.9-2.7 3M61.9 150.9c-1-.9-2-1.8-3-2.6 4.2-2.5 9.2-3.9 14.4-3.9 5.2 0 10.2 1.4 14.4 3.9-1 .8-2 1.7-3 2.6-3.4-1.8-7.3-2.8-11.4-2.8-4.1.1-8 1.1-11.4 2.8"/><path fill="#15293B" d="M91 145.7c-5.1-3.3-11.1-5.2-17.6-5.2-6.5 0-12.5 1.9-17.6 5.2-1.1-.8-2.1-1.6-3.2-2.3 5.9-4.2 13.1-6.6 20.9-6.6 7.8 0 15 2.5 20.9 6.6-1.3.8-2.4 1.5-3.4 2.3"/><path fill="#15293B" d="M99.1 140.3c-7.1-5.6-16.1-9-25.8-9s-18.7 3.4-25.8 9c-1.2-.7-2.3-1.3-3.5-1.9 7.9-6.7 18.2-10.8 29.3-10.8 11.1 0 21.4 4.1 29.3 10.8-1.2.6-2.3 1.2-3.5 1.9"/><path fill="#15293B" d="M39 136c-1.2-.5-2.5-1.1-3.8-1.5 9.7-9.9 23.2-16 38.1-16s28.4 6.1 38.1 16c-1.3.5-2.5 1-3.8 1.5-9-8.5-21.1-13.8-34.4-13.8-13.2-.1-25.3 5.2-34.2 13.8"/><path fill="#15293B" d="M116.3 132.8c-10.7-11.7-26-19.1-43-19.1s-32.3 7.4-43 19.1c-1.3-.4-2.7-.8-4-1.1 11.4-13.3 28.3-21.7 47-21.7s35.6 8.4 47 21.7c-1.3.3-2.6.7-4 1.1"/><path fill="#15293B" d="M125.9 130.5c-12.3-15.6-31.3-25.6-52.5-25.6-21.3 0-40.2 10-52.5 25.6-1.4-.2-2.8-.5-4.2-.6 12.9-17.4 33.6-28.7 56.8-28.7 23.2 0 43.8 11.3 56.8 28.7-1.6.1-3 .4-4.4.6"/><path fill="#15293B" d="M142.6 129.3c-.9 0-1.8-.1-2.7-.1h-1.7c-13.9-21.2-37.8-35.1-64.8-35.1s-50.9 14-64.8 35.1H6.9c-.9 0-1.8 0-2.7.1C18.4 106 44.1 90.4 73.3 90.4c29.3 0 54.9 15.6 69.3 38.9M730.2 208.2l-.8-1.2-.8-1.2-1.6-2.4s.6-.3 1.6-.6c.3-.1.6-.1.9-.2h.7v5.6zM725.3 200l-2.7-3c1.9-.8 3.9-1.3 6-1.4h1.6V199.4h-.8c-1.4 0-2.8.2-4.1.6M718.7 193.2c-1-.9-2-1.8-3-2.6 3.8-2.2 8.2-3.6 12.8-3.8h1.6v3.7h-.8c-3.7.1-7.4 1.1-10.6 2.7M712.5 188c-1.1-.8-2.1-1.6-3.2-2.3 5.5-3.9 12.1-6.3 19.3-6.6h1.6v3.7h-.8c-6.2.2-12 2.1-16.9 5.2M704.4 182.6c-1.2-.7-2.3-1.3-3.5-1.9 7.5-6.4 17.2-10.4 27.7-10.8h1.6v3.7h-.8c-9.4.2-18.1 3.5-25 9M695.8 178.3c-1.2-.5-2.5-1.1-3.8-1.5 9.4-9.5 22.3-15.6 36.5-16h1.6v3.7h-.8c-12.9.2-24.7 5.4-33.5 13.8"/><path fill="#15293B" d="M687.2 175.1c-1.3-.4-2.7-.8-4-1.1 11.1-12.9 27.3-21.2 45.4-21.7h1.6v3.7h-.8c-16.7.2-31.7 7.5-42.2 19.1"/><path fill="#15293B" d="M677.6 172.8c-1.4-.2-2.8-.5-4.2-.6 12.6-17 32.6-28.2 55.2-28.7h1.6v3.7h-.8c-21 .3-39.6 10.2-51.8 25.6"/><path fill="#15293B" d="M660.9 171.6c14.1-22.9 39.1-38.3 67.7-38.9h1.6v3.7h-.8c-26.7.3-50.2 14.2-64 35.1h-1.7c-1 .1-1.9.1-2.8.1M584.1 208.2l-3.2-4.8s1.4-.8 3.3-.8c1 0 2 .2 3.1.8l-3.2 4.8zM589 200c-1.5-.5-3.2-.8-4.9-.8-1.7 0-3.3.3-4.9.8l-2.7-3c2.3-1 4.9-1.5 7.6-1.5 2.7 0 5.2.5 7.6 1.5-1 1-1.9 2-2.7 3M572.6 193.2c-1-.9-2-1.8-3-2.6 4.2-2.5 9.2-3.9 14.4-3.9 5.2 0 10.2 1.4 14.4 3.9-1 .8-2 1.7-3 2.6-3.4-1.8-7.3-2.8-11.4-2.8-4 .1-7.9 1.1-11.4 2.8"/><path fill="#15293B" d="M601.7 188c-5.1-3.3-11.1-5.2-17.6-5.2-6.5 0-12.5 1.9-17.6 5.2-1-.8-2.1-1.6-3.2-2.3 5.9-4.2 13.1-6.6 20.9-6.6 7.8 0 15 2.5 20.9 6.6-1.2.8-2.3 1.5-3.4 2.3"/><path fill="#15293B" d="M609.9 182.6c-7.1-5.6-16.1-9-25.8-9s-18.7 3.4-25.8 9c-1.2-.7-2.3-1.3-3.5-1.9 7.9-6.7 18.2-10.8 29.3-10.8 11.1 0 21.4 4.1 29.3 10.8-1.2.6-2.4 1.2-3.5 1.9"/><path fill="#15293B" d="M549.7 178.3c-1.2-.5-2.5-1.1-3.8-1.5 9.7-9.9 23.2-16 38.1-16 14.9 0 28.4 6.1 38.1 16-1.3.5-2.5 1-3.8 1.5-9-8.5-21.1-13.8-34.4-13.8-13.1-.1-25.2 5.2-34.2 13.8"/><path fill="#15293B" d="M627.1 175.1c-10.7-11.7-26-19.1-43-19.1s-32.3 7.4-43 19.1c-1.3-.4-2.7-.8-4-1.1 11.4-13.3 28.3-21.7 47-21.7 18.8 0 35.6 8.4 47 21.7-1.4.3-2.7.7-4 1.1"/><path fill="#15293B" d="M636.6 172.8c-12.3-15.6-31.3-25.6-52.5-25.6-21.3 0-40.2 10-52.5 25.6-1.4-.2-2.8-.5-4.2-.6 12.9-17.4 33.6-28.7 56.8-28.7 23.2 0 43.8 11.3 56.8 28.7-1.6.1-3 .3-4.4.6"/><path fill="#15293B" d="M653.4 171.6c-.9 0-1.8-.1-2.7-.1H649c-13.9-21.2-37.8-35.1-64.8-35.1s-50.9 14-64.8 35.1h-1.7c-.9 0-1.8 0-2.7.1 14.4-23.3 40.1-38.9 69.3-38.9s54.7 15.6 69.1 38.9M657.7 251.8l-3.2-4.8s1.4-.8 3.3-.8c1 0 2 .2 3.1.8l-3.2 4.8zM662.5 243.6c-1.5-.5-3.2-.8-4.9-.8-1.7 0-3.3.3-4.9.8l-2.7-3c2.3-1 4.9-1.5 7.6-1.5 2.7 0 5.2.5 7.6 1.5-.9.9-1.8 2-2.7 3M646.2 236.8c-1-.9-2-1.8-3-2.6 4.2-2.5 9.2-3.9 14.4-3.9 5.2 0 10.2 1.4 14.4 3.9-1 .8-2 1.7-3 2.6-3.4-1.8-7.3-2.8-11.4-2.8-4.1 0-7.9 1-11.4 2.8"/><path fill="#15293B" d="M675.3 231.6c-5.1-3.3-11.1-5.2-17.6-5.2-6.5 0-12.5 1.9-17.6 5.2-1-.8-2.1-1.6-3.2-2.3 5.9-4.2 13.1-6.6 20.9-6.6 7.8 0 15 2.5 20.9 6.6-1.3.7-2.3 1.5-3.4 2.3"/><path fill="#15293B" d="M683.4 226.1c-7.1-5.6-16.1-9-25.8-9s-18.7 3.4-25.8 9c-1.2-.7-2.3-1.3-3.5-1.9 7.9-6.7 18.2-10.8 29.3-10.8 11.1 0 21.4 4.1 29.3 10.8-1.1.6-2.3 1.2-3.5 1.9"/><path fill="#15293B" d="M623.3 221.8c-1.2-.5-2.5-1.1-3.8-1.5 9.7-9.9 23.2-16 38.1-16s28.4 6.1 38.1 16c-1.3.5-2.5 1-3.8 1.5-9-8.5-21.1-13.8-34.4-13.8-13.1 0-25.2 5.2-34.2 13.8"/><path fill="#15293B" d="M700.7 218.6c-10.7-11.7-26-19.1-43-19.1s-32.3 7.4-43 19.1c-1.3-.4-2.7-.8-4-1.1 11.4-13.3 28.3-21.7 47-21.7s35.6 8.4 47 21.7c-1.4.3-2.7.7-4 1.1"/><path fill="#15293B" d="M710.2 216.3c-12.3-15.6-31.3-25.6-52.5-25.6-21.3 0-40.2 10-52.5 25.6-1.4-.2-2.8-.5-4.2-.6 12.9-17.4 33.6-28.7 56.8-28.7 23.2 0 43.8 11.3 56.8 28.7-1.6.2-3 .4-4.4.6"/><path fill="#15293B" d="M727 215.2c-.9 0-1.8-.1-2.7-.1h-1.7c-14-21.1-37.9-35.1-64.9-35.1s-50.9 14-64.8 35.1h-1.7c-.9 0-1.8 0-2.7.1 14.4-23.3 40.1-38.9 69.3-38.9 29.1-.1 54.8 15.5 69.2 38.9M438 208.2l-3.2-4.8s1.4-.8 3.3-.8c1 0 2 .2 3.1.8l-3.2 4.8zM442.9 200c-1.5-.5-3.2-.8-4.9-.8-1.7 0-3.3.3-4.9.8l-2.7-3c2.3-1 4.9-1.5 7.6-1.5 2.7 0 5.2.5 7.6 1.5l-2.7 3M426.6 193.2c-1-.9-2-1.8-3-2.6 4.2-2.5 9.2-3.9 14.4-3.9 5.2 0 10.2 1.4 14.4 3.9-1 .8-2 1.7-3 2.6-3.4-1.8-7.3-2.8-11.4-2.8-4.1.1-8 1.1-11.4 2.8"/><path fill="#15293B" d="M455.6 188c-5.1-3.3-11.1-5.2-17.6-5.2-6.5 0-12.5 1.9-17.6 5.2-1.1-.8-2.1-1.6-3.2-2.3 5.9-4.2 13.1-6.6 20.9-6.6 7.8 0 15 2.5 20.9 6.6-1.2.8-2.3 1.5-3.4 2.3"/><path fill="#15293B" d="M463.8 182.6c-7.1-5.6-16.1-9-25.8-9s-18.7 3.4-25.8 9c-1.2-.7-2.3-1.3-3.5-1.9 7.9-6.7 18.2-10.8 29.3-10.8 11.1 0 21.4 4.1 29.3 10.8-1.2.6-2.4 1.2-3.5 1.9"/><path fill="#15293B" d="M403.6 178.3c-1.2-.5-2.5-1.1-3.8-1.5 9.7-9.9 23.2-16 38.1-16 14.9 0 28.4 6.1 38.1 16-1.3.5-2.5 1-3.8 1.5-9-8.5-21.1-13.8-34.4-13.8-13.1-.1-25.2 5.2-34.2 13.8"/><path fill="#15293B" d="M481 175.1c-10.7-11.7-26-19.1-43-19.1s-32.3 7.4-43 19.1c-1.3-.4-2.7-.8-4-1.1 11.4-13.3 28.3-21.7 47-21.7 18.8 0 35.6 8.4 47 21.7-1.3.3-2.7.7-4 1.1"/><path fill="#15293B" d="M490.6 172.8c-12.3-15.6-31.3-25.6-52.5-25.6-21.3 0-40.2 10-52.5 25.6-1.4-.2-2.8-.5-4.2-.6 12.9-17.4 33.6-28.7 56.8-28.7 23.2 0 43.8 11.3 56.8 28.7-1.6.1-3.1.3-4.4.6"/><path fill="#15293B" d="M507.3 171.6c-.9 0-1.8-.1-2.7-.1h-1.7c-13.9-21.2-37.8-35.1-64.8-35.1s-50.9 14-64.8 35.1h-1.7c-.9 0-1.8 0-2.7.1 14.4-23.3 40.1-38.9 69.3-38.9s54.7 15.6 69.1 38.9M511.6 251.8l-3.2-4.8s1.4-.8 3.3-.8c1 0 2 .2 3.1.8l-3.2 4.8zM516.5 243.6c-1.5-.5-3.2-.8-4.9-.8-1.7 0-3.3.3-4.9.8l-2.7-3c2.3-1 4.9-1.5 7.6-1.5 2.7 0 5.2.5 7.6 1.5-1 .9-1.9 2-2.7 3M500.1 236.8c-1-.9-2-1.8-3-2.6 4.2-2.5 9.2-3.9 14.4-3.9 5.2 0 10.2 1.4 14.4 3.9-1 .8-2 1.7-3 2.6-3.4-1.8-7.3-2.8-11.4-2.8-4 0-7.9 1-11.4 2.8"/><path fill="#15293B" d="M529.2 231.6c-5.1-3.3-11.1-5.2-17.6-5.2-6.5 0-12.5 1.9-17.6 5.2-1-.8-2.1-1.6-3.2-2.3 5.9-4.2 13.1-6.6 20.9-6.6 7.8 0 15 2.5 20.9 6.6-1.2.7-2.3 1.5-3.4 2.3"/><path fill="#15293B" d="M537.4 226.1c-7.1-5.6-16.1-9-25.8-9s-18.7 3.4-25.8 9c-1.2-.7-2.3-1.3-3.5-1.9 7.9-6.7 18.2-10.8 29.3-10.8 11.1 0 21.4 4.1 29.3 10.8-1.2.6-2.4 1.2-3.5 1.9"/><path fill="#15293B" d="M477.2 221.8c-1.2-.5-2.5-1.1-3.8-1.5 9.7-9.9 23.2-16 38.1-16 14.9 0 28.4 6.1 38.1 16-1.3.5-2.5 1-3.8 1.5-9-8.5-21.1-13.8-34.4-13.8-13.1 0-25.2 5.2-34.2 13.8"/><path fill="#15293B" d="M554.6 218.6c-10.7-11.7-26-19.1-43-19.1s-32.3 7.4-43 19.1c-1.3-.4-2.7-.8-4-1.1 11.4-13.3 28.3-21.7 47-21.7 18.8 0 35.6 8.4 47 21.7-1.4.3-2.7.7-4 1.1"/><path fill="#15293B" d="M564.1 216.3c-12.3-15.6-31.3-25.6-52.5-25.6-21.3 0-40.2 10-52.5 25.6-1.4-.2-2.8-.5-4.2-.6 12.9-17.4 33.6-28.7 56.8-28.7 23.2 0 43.8 11.3 56.8 28.7-1.6.2-3 .4-4.4.6"/><path fill="#15293B" d="M580.9 215.2c-.9 0-1.8-.1-2.7-.1h-1.7c-14-21.1-37.9-35.1-64.9-35.1s-50.9 14-64.8 35.1h-1.7c-.9 0-1.8 0-2.7.1 14.4-23.3 40.1-38.9 69.3-38.9s54.8 15.5 69.2 38.9M291.9 208.2l-3.2-4.8s1.4-.8 3.3-.8c1 0 2 .2 3.1.8l-3.2 4.8zM296.8 200c-1.5-.5-3.2-.8-4.9-.8s-3.3.3-4.9.8l-2.7-3c2.3-1 4.9-1.5 7.6-1.5 2.7 0 5.2.5 7.6 1.5l-2.7 3M280.5 193.2c-1-.9-2-1.8-3-2.6 4.2-2.5 9.2-3.9 14.4-3.9 5.2 0 10.2 1.4 14.4 3.9-1 .8-2 1.7-3 2.6-3.4-1.8-7.3-2.8-11.4-2.8-4.1.1-8 1.1-11.4 2.8"/><path fill="#15293B" d="M309.6 188c-5.1-3.3-11.1-5.2-17.6-5.2-6.5 0-12.5 1.9-17.6 5.2-1.1-.8-2.1-1.6-3.2-2.3 5.9-4.2 13.1-6.6 20.9-6.6 7.8 0 15 2.5 20.9 6.6-1.3.8-2.4 1.5-3.4 2.3"/><path fill="#15293B" d="M317.7 182.6c-7.1-5.6-16.1-9-25.8-9s-18.7 3.4-25.8 9c-1.2-.7-2.3-1.3-3.5-1.9 7.9-6.7 18.2-10.8 29.3-10.8 11.1 0 21.4 4.1 29.3 10.8-1.2.6-2.3 1.2-3.5 1.9"/><path fill="#15293B" d="M257.5 178.3c-1.2-.5-2.5-1.1-3.8-1.5 9.7-9.9 23.2-16 38.1-16 14.9 0 28.4 6.1 38.1 16-1.3.5-2.5 1-3.8 1.5-9-8.5-21.1-13.8-34.4-13.8-13.1-.1-25.2 5.2-34.2 13.8"/><path fill="#15293B" d="M334.9 175.1c-10.7-11.7-26-19.1-43-19.1s-32.3 7.4-43 19.1c-1.3-.4-2.7-.8-4-1.1 11.4-13.3 28.3-21.7 47-21.7 18.8 0 35.6 8.4 47 21.7-1.3.3-2.7.7-4 1.1"/><path fill="#15293B" d="M344.5 172.8c-12.3-15.6-31.3-25.6-52.5-25.6-21.3 0-40.2 10-52.5 25.6-1.4-.2-2.8-.5-4.2-.6 12.9-17.4 33.6-28.7 56.8-28.7 23.2 0 43.8 11.3 56.8 28.7-1.6.1-3 .3-4.4.6"/><path fill="#15293B" d="M361.2 171.6c-.9 0-1.8-.1-2.7-.1h-1.7c-13.9-21.2-37.8-35.1-64.8-35.1s-50.9 14-64.8 35.1h-1.7c-.9 0-1.8 0-2.7.1 14.4-23.3 40.1-38.9 69.3-38.9 29 0 54.7 15.6 69.1 38.9M365.5 251.8l-3.2-4.8s1.4-.8 3.3-.8c1 0 2 .2 3.1.8l-3.2 4.8zM370.4 243.6c-1.5-.5-3.2-.8-4.9-.8-1.7 0-3.3.3-4.9.8l-2.7-3c2.3-1 4.9-1.5 7.6-1.5 2.7 0 5.2.5 7.6 1.5-.9.9-1.8 2-2.7 3M354.1 236.8c-1-.9-2-1.8-3-2.6 4.2-2.5 9.2-3.9 14.4-3.9 5.2 0 10.2 1.4 14.4 3.9-1 .8-2 1.7-3 2.6-3.4-1.8-7.3-2.8-11.4-2.8-4.1 0-8 1-11.4 2.8"/><path fill="#15293B" d="M383.1 231.6c-5.1-3.3-11.1-5.2-17.6-5.2-6.5 0-12.5 1.9-17.6 5.2-1.1-.8-2.1-1.6-3.2-2.3 5.9-4.2 13.1-6.6 20.9-6.6 7.8 0 15 2.5 20.9 6.6-1.2.7-2.3 1.5-3.4 2.3"/><path fill="#15293B" d="M391.3 226.1c-7.1-5.6-16.1-9-25.8-9s-18.7 3.4-25.8 9c-1.2-.7-2.3-1.3-3.5-1.9 7.9-6.7 18.2-10.8 29.3-10.8 11.1 0 21.4 4.1 29.3 10.8-1.2.6-2.4 1.2-3.5 1.9"/><path fill="#15293B" d="M331.1 221.8c-1.2-.5-2.5-1.1-3.8-1.5 9.7-9.9 23.2-16 38.1-16 14.9 0 28.4 6.1 38.1 16-1.3.5-2.5 1-3.8 1.5-9-8.5-21.1-13.8-34.4-13.8-13.1 0-25.2 5.2-34.2 13.8"/><path fill="#15293B" d="M408.5 218.6c-10.7-11.7-26-19.1-43-19.1s-32.3 7.4-43 19.1c-1.3-.4-2.7-.8-4-1.1 11.4-13.3 28.3-21.7 47-21.7 18.8 0 35.6 8.4 47 21.7-1.3.3-2.7.7-4 1.1"/><path fill="#15293B" d="M418 216.3c-12.3-15.6-31.3-25.6-52.5-25.6-21.3 0-40.2 10-52.5 25.6-1.4-.2-2.8-.5-4.2-.6 12.9-17.4 33.6-28.7 56.8-28.7 23.2 0 43.8 11.3 56.8 28.7-1.5.2-3 .4-4.4.6"/><path fill="#15293B" d="M434.8 215.2c-.9 0-1.8-.1-2.7-.1h-1.7c-14-21.1-37.9-35.1-64.9-35.1s-50.9 14-64.8 35.1H299c-.9 0-1.8 0-2.7.1 14.4-23.3 40.1-38.9 69.3-38.9 29.1-.1 54.8 15.5 69.2 38.9M145.8 208.2l-3.2-4.8s1.4-.8 3.3-.8c1 0 2 .2 3.1.8l-3.2 4.8zM150.7 200c-1.5-.5-3.2-.8-4.9-.8-1.7 0-3.3.3-4.9.8l-2.7-3c2.3-1 4.9-1.5 7.6-1.5 2.7 0 5.2.5 7.6 1.5l-2.7 3M134.4 193.2c-1-.9-2-1.8-3-2.6 4.2-2.5 9.2-3.9 14.4-3.9 5.2 0 10.2 1.4 14.4 3.9-1 .8-2 1.7-3 2.6-3.4-1.8-7.3-2.8-11.4-2.8s-8 1.1-11.4 2.8"/><path fill="#15293B" d="M163.5 188c-5.1-3.3-11.1-5.2-17.6-5.2-6.5 0-12.5 1.9-17.6 5.2-1-.8-2.1-1.6-3.2-2.3 5.9-4.2 13.1-6.6 20.9-6.6 7.8 0 15 2.5 20.9 6.6-1.3.8-2.4 1.5-3.4 2.3"/><path fill="#15293B" d="M171.6 182.6c-7.1-5.6-16.1-9-25.8-9s-18.7 3.4-25.8 9c-1.2-.7-2.3-1.3-3.5-1.9 7.9-6.7 18.2-10.8 29.3-10.8 11.1 0 21.4 4.1 29.3 10.8-1.1.6-2.3 1.2-3.5 1.9"/><path fill="#15293B" d="M111.5 178.3c-1.2-.5-2.5-1.1-3.8-1.5 9.7-9.9 23.2-16 38.1-16 14.9 0 28.4 6.1 38.1 16-1.3.5-2.5 1-3.8 1.5-9-8.5-21.1-13.8-34.4-13.8-13.2-.1-25.3 5.2-34.2 13.8"/><path fill="#15293B" d="M188.8 175.1c-10.7-11.7-26-19.1-43-19.1s-32.3 7.4-43 19.1c-1.3-.4-2.7-.8-4-1.1 11.4-13.3 28.3-21.7 47-21.7 18.8 0 35.6 8.4 47 21.7-1.3.3-2.6.7-4 1.1"/><path fill="#15293B" d="M198.4 172.8c-12.3-15.6-31.3-25.6-52.5-25.6-21.3 0-40.2 10-52.5 25.6-1.4-.2-2.8-.5-4.2-.6 12.9-17.4 33.6-28.7 56.8-28.7 23.2 0 43.8 11.3 56.8 28.7-1.6.1-3 .3-4.4.6"/><path fill="#15293B" d="M215.1 171.6c-.9 0-1.8-.1-2.7-.1h-1.7c-13.9-21.2-37.8-35.1-64.8-35.1S95 150.4 81 171.6h-1.7c-.9 0-1.8 0-2.7.1 14.4-23.3 40.1-38.9 69.3-38.9s54.8 15.5 69.2 38.8M219.4 251.8l-3.2-4.8s1.4-.8 3.3-.8c1 0 2 .2 3.1.8l-3.2 4.8zM224.3 243.6c-1.5-.5-3.2-.8-4.9-.8-1.7 0-3.3.3-4.9.8l-2.7-3c2.3-1 4.9-1.5 7.6-1.5 2.7 0 5.2.5 7.6 1.5-.9.9-1.8 2-2.7 3M208 236.8c-1-.9-2-1.8-3-2.6 4.2-2.5 9.2-3.9 14.4-3.9 5.2 0 10.2 1.4 14.4 3.9-1 .8-2 1.7-3 2.6-3.4-1.8-7.3-2.8-11.4-2.8-4.1 0-8 1-11.4 2.8"/><path fill="#15293B" d="M237.1 231.6c-5.1-3.3-11.1-5.2-17.6-5.2-6.5 0-12.5 1.9-17.6 5.2-1.1-.8-2.1-1.6-3.2-2.3 5.9-4.2 13.1-6.6 20.9-6.6 7.8 0 15 2.5 20.9 6.6-1.3.7-2.4 1.5-3.4 2.3"/><path fill="#15293B" d="M245.2 226.1c-7.1-5.6-16.1-9-25.8-9s-18.7 3.4-25.8 9c-1.2-.7-2.3-1.3-3.5-1.9 7.9-6.7 18.2-10.8 29.3-10.8 11.1 0 21.4 4.1 29.3 10.8-1.2.6-2.3 1.2-3.5 1.9"/><path fill="#15293B" d="M185 221.8c-1.2-.5-2.5-1.1-3.8-1.5 9.7-9.9 23.2-16 38.1-16 14.9 0 28.4 6.1 38.1 16-1.3.5-2.5 1-3.8 1.5-9-8.5-21.1-13.8-34.4-13.8-13.1 0-25.2 5.2-34.2 13.8"/><path fill="#15293B" d="M262.4 218.6c-10.7-11.7-26-19.1-43-19.1s-32.3 7.4-43 19.1c-1.3-.4-2.7-.8-4-1.1 11.4-13.3 28.3-21.7 47-21.7s35.6 8.4 47 21.7c-1.3.3-2.7.7-4 1.1"/><path fill="#15293B" d="M272 216.3c-12.3-15.6-31.3-25.6-52.5-25.6-21.3 0-40.2 10-52.5 25.6-1.4-.2-2.8-.5-4.2-.6 12.9-17.4 33.6-28.7 56.8-28.7 23.2 0 43.8 11.3 56.8 28.7-1.6.2-3 .4-4.4.6"/><path fill="#15293B" d="M288.7 215.2c-.9 0-1.8-.1-2.7-.1h-1.7c-14-21.1-37.8-35.1-64.9-35.1s-50.9 14-64.8 35.1h-1.7c-.9 0-1.8 0-2.7.1 14.4-23.3 40.1-38.9 69.3-38.9 29.1-.1 54.8 15.5 69.2 38.9M-.2 208.2v-5.5h.1c1 0 2 .2 3.1.8l-3.2 4.7zM4.6 200c-1.5-.5-3.2-.8-4.9-.8v-3.8c2.7 0 5.2.5 7.6 1.5-.9 1.1-1.8 2.1-2.7 3.1M11.2 193.2c-3.4-1.8-7.3-2.8-11.4-2.8v-3.8c5.2 0 10.2 1.4 14.4 3.9-1 1-2 1.8-3 2.7M17.4 188c-5.1-3.3-11.1-5.2-17.6-5.2V179c7.8 0 15 2.5 20.9 6.6-1.2.9-2.2 1.6-3.3 2.4M25.5 182.6c-7.1-5.6-16.1-9-25.8-9v-3.8c11.1 0 21.4 4.1 29.3 10.8-1.1.7-2.3 1.3-3.5 2M34.1 178.2c-9-8.5-21.1-13.8-34.4-13.8v-3.8c14.9 0 28.4 6.1 38.1 16-1.2.6-2.4 1.1-3.7 1.6"/><path fill="#15293B" d="M42.8 175.1c-10.7-11.7-26-19.1-43-19.1v-3.8c18.8 0 35.6 8.4 47 21.7-1.4.4-2.7.8-4 1.2"/><path fill="#15293B" d="M52.3 172.8C40 157.2 21 147.2-.2 147.2v-3.8c23.2 0 43.8 11.3 56.8 28.7-1.5.2-2.9.4-4.3.7"/><path fill="#15293B" d="M69.1 171.6c-.9 0-1.8-.1-2.7-.1h-1.7c-13.9-21.2-37.8-35.1-64.8-35.1v-3.8c29.1.1 54.8 15.7 69.2 39M73.3 251.8l-3.2-4.8s1.4-.8 3.3-.8c1 0 2 .2 3.1.8l-3.2 4.8zM78.2 243.6c-1.5-.5-3.2-.8-4.9-.8-1.7 0-3.3.3-4.9.8l-2.7-3c2.3-1 4.9-1.5 7.6-1.5 2.7 0 5.2.5 7.6 1.5-.9.9-1.8 2-2.7 3M61.9 236.8c-1-.9-2-1.8-3-2.6 4.2-2.5 9.2-3.9 14.4-3.9 5.2 0 10.2 1.4 14.4 3.9-1 .8-2 1.7-3 2.6-3.4-1.8-7.3-2.8-11.4-2.8-4.1 0-8 1-11.4 2.8"/><path fill="#15293B" d="M91 231.6c-5.1-3.3-11.1-5.2-17.6-5.2-6.5 0-12.5 1.9-17.6 5.2-1.1-.8-2.1-1.6-3.2-2.3 5.9-4.2 13.1-6.6 20.9-6.6 7.8 0 15 2.5 20.9 6.6-1.3.7-2.4 1.5-3.4 2.3"/><path fill="#15293B" d="M99.1 226.1c-7.1-5.6-16.1-9-25.8-9s-18.7 3.4-25.8 9c-1.2-.7-2.3-1.3-3.5-1.9 7.9-6.7 18.2-10.8 29.3-10.8 11.1 0 21.4 4.1 29.3 10.8-1.2.6-2.3 1.2-3.5 1.9"/><path fill="#15293B" d="M39 221.8c-1.2-.5-2.5-1.1-3.8-1.5 9.7-9.9 23.2-16 38.1-16s28.4 6.1 38.1 16c-1.3.5-2.5 1-3.8 1.5-9-8.5-21.1-13.8-34.4-13.8-13.2 0-25.3 5.2-34.2 13.8"/><path fill="#15293B" d="M116.3 218.6c-10.7-11.7-26-19.1-43-19.1s-32.3 7.4-43 19.1c-1.3-.4-2.7-.8-4-1.1 11.4-13.3 28.3-21.7 47-21.7s35.6 8.4 47 21.7c-1.3.3-2.6.7-4 1.1"/><path fill="#15293B" d="M125.9 216.3c-12.3-15.6-31.3-25.6-52.5-25.6-21.3 0-40.2 10-52.5 25.6-1.4-.2-2.8-.5-4.2-.6C29.5 198.3 50.1 187 73.3 187c23.2 0 43.8 11.3 56.8 28.7l-4.2.6"/><path fill="#15293B" d="M142.6 215.2c-.9 0-1.8-.1-2.7-.1h-1.7c-14-21.1-37.8-35.1-64.9-35.1s-50.9 14-64.8 35.1H6.8c-.9 0-1.8 0-2.7.1 14.4-23.3 40.1-38.9 69.3-38.9 29.2-.1 54.8 15.5 69.2 38.9M718 251.8h-11c6.5-3.1 13.8-5 21.5-5.2h1.6v3.7h-.8c-3.8 0-7.6.5-11.3 1.5M697.7 251.8h-6.3c10.2-8.2 23.1-13.3 37.1-13.7h1.6v3.7h-.8c-11.6.2-22.5 3.8-31.6 10"/><path fill="#15293B" d="M683.8 251.8h-5.3c12.6-13.5 30.3-22 50-22.5h1.6v3.7h-.8c-17.6.2-33.6 7.3-45.5 18.8"/><path fill="#15293B" d="M669.4 251.8h-4.7c14.6-19.7 37.7-32.7 63.8-33.2h1.6v3.7h-.8c-24.1.2-45.8 11.7-59.9 29.5M607.2 251.8h-11c-3.9-1-7.9-1.5-12.1-1.5-4.2 0-8.2.5-12.1 1.5h-11c7-3.4 14.8-5.2 23.1-5.2 8.2-.1 16.1 1.8 23.1 5.2"/><path fill="#15293B" d="M622.8 251.8h-6.3c-9.3-6.3-20.4-9.9-32.4-9.9s-23.1 3.7-32.4 9.9h-6.3c10.6-8.6 24.1-13.7 38.7-13.7 14.6 0 28.1 5.1 38.7 13.7"/><path fill="#15293B" d="M635.7 251.8h-5.2C618.4 240.2 602 233 584.1 233c-18 0-34.3 7.1-46.3 18.7h-5.3c12.9-13.8 31.3-22.5 51.6-22.5 20.3.1 38.6 8.7 51.6 22.6"/><path fill="#15293B" d="M649.5 251.8h-4.7c-14.3-18-36.2-29.5-60.7-29.5s-46.5 11.5-60.7 29.5h-4.7c14.9-20.1 38.7-33.2 65.4-33.2 26.8-.1 50.6 13 65.4 33.2M461.1 251.8h-11c-3.9-1-7.9-1.5-12.1-1.5-4.2 0-8.2.5-12.1 1.5h-11c7-3.4 14.8-5.2 23.1-5.2 8.3-.1 16.1 1.8 23.1 5.2"/><path fill="#15293B" d="M476.7 251.8h-6.3c-9.3-6.3-20.4-9.9-32.4-9.9s-23.1 3.7-32.4 9.9h-6.3c10.6-8.6 24.1-13.7 38.7-13.7 14.6 0 28.1 5.1 38.7 13.7"/><path fill="#15293B" d="M489.6 251.8h-5.2C472.3 240.2 456 233 438 233s-34.3 7.1-46.3 18.7h-5.3c12.9-13.8 31.3-22.5 51.6-22.5 20.3.1 38.7 8.7 51.6 22.6"/><path fill="#15293B" d="M503.5 251.8h-4.7c-14.3-18-36.2-29.5-60.7-29.5s-46.5 11.5-60.7 29.5h-4.7c14.9-20.1 38.7-33.2 65.4-33.2 26.7-.1 50.5 13 65.4 33.2M315 251.8h-11c-3.9-1-7.9-1.5-12.1-1.5-4.2 0-8.2.5-12.1 1.5h-11c7-3.4 14.8-5.2 23.1-5.2 8.3-.1 16.1 1.8 23.1 5.2"/><path fill="#15293B" d="M330.6 251.8h-6.3c-9.3-6.3-20.4-9.9-32.4-9.9s-23.1 3.7-32.4 9.9h-6.3c10.6-8.6 24.1-13.7 38.7-13.7 14.7 0 28.1 5.1 38.7 13.7"/><path fill="#15293B" d="M343.5 251.8h-5.2c-12.1-11.6-28.4-18.7-46.3-18.7-18 0-34.3 7.1-46.3 18.7h-5.3c12.9-13.8 31.3-22.5 51.6-22.5 20.2 0 38.6 8.6 51.5 22.5"/><path fill="#15293B" d="M357.4 251.8h-4.7c-14.3-18-36.2-29.5-60.7-29.5s-46.5 11.5-60.7 29.5h-4.7c14.9-20.1 38.7-33.2 65.4-33.2 26.7-.1 50.5 13 65.4 33.2M168.9 251.8h-11c-3.9-1-7.9-1.5-12.1-1.5-4.2 0-8.2.5-12.1 1.5h-11c7-3.4 14.8-5.2 23.1-5.2 8.3-.1 16.1 1.8 23.1 5.2"/><path fill="#15293B" d="M184.6 251.8h-6.3c-9.3-6.3-20.4-9.9-32.4-9.9s-23.1 3.7-32.4 9.9h-6.3c10.6-8.6 24.1-13.7 38.7-13.7 14.6 0 28 5.1 38.7 13.7"/><path fill="#15293B" d="M197.4 251.8h-5.2c-12.1-11.6-28.4-18.7-46.3-18.7-18 0-34.3 7.1-46.3 18.7h-5.3c12.9-13.8 31.3-22.5 51.6-22.5s38.6 8.6 51.5 22.5"/><path fill="#15293B" d="M211.3 251.8h-4.7c-14.3-18-36.2-29.5-60.7-29.5s-46.5 11.5-60.7 29.5h-4.7c14.9-20.1 38.7-33.2 65.4-33.2 26.7-.1 50.5 13 65.4 33.2M22.8 251.8h-11c-3.9-1-7.9-1.5-12.1-1.5v-3.8c8.3 0 16.1 1.9 23.1 5.3M38.5 251.8h-6.3c-9.3-6.3-20.4-9.9-32.4-9.9v-3.8c14.6 0 28.1 5.1 38.7 13.7"/><path fill="#15293B" d="M51.3 251.8h-5.2C34 240.2 17.7 233-.2 233v-3.8c20.3.1 38.6 8.7 51.5 22.6"/><path fill="#15293B" d="M65.2 251.8h-4.7c-14.3-18-36.2-29.5-60.7-29.5v-3.8c26.7 0 50.5 13.1 65.4 33.3"/></svg>